<svg xmlns="http://www.w3.org/2000/svg" xmlns:xlink="http://www.w3.org/1999/xlink" width="500" zoomAndPan="magnify" viewBox="0 0 375 374.999991" height="500" preserveAspectRatio="xMidYMid meet" version="1.0"><defs><clipPath id="7db7f602dc"><path d="M 314 51.550781 L 362 51.550781 L 362 100 L 314 100 Z M 314 51.550781 " clip-rule="nonzero"/></clipPath><clipPath id="e9d8e31843"><path d="M 10.8125 64 L 350 64 L 350 308.800781 L 10.8125 308.800781 Z M 10.8125 64 " clip-rule="nonzero"/></clipPath></defs><path fill="#d9d9d9" d="M 234.261719 124.292969 L 62.160156 124.292969 C 59.957031 124.292969 58.167969 122.503906 58.167969 120.300781 C 58.167969 118.097656 59.957031 116.308594 62.160156 116.308594 L 234.261719 116.308594 C 236.464844 116.308594 238.253906 118.097656 238.253906 120.300781 C 238.253906 122.503906 236.464844 124.292969 234.261719 124.292969 Z M 234.261719 124.292969 " fill-opacity="1" fill-rule="nonzero"/><path fill="#d9d9d9" d="M 203.945312 163 L 62.160156 163 C 59.957031 163 58.167969 161.210938 58.167969 159.007812 C 58.167969 156.804688 59.957031 155.015625 62.160156 155.015625 L 203.945312 155.015625 C 206.148438 155.015625 207.9375 156.804688 207.9375 159.007812 C 207.9375 161.210938 206.148438 163 203.945312 163 Z M 203.945312 163 " fill-opacity="1" fill-rule="nonzero"/><path fill="#d9d9d9" d="M 203.945312 201.699219 L 62.160156 201.699219 C 59.957031 201.699219 58.167969 199.910156 58.167969 197.707031 C 58.167969 195.503906 59.957031 193.714844 62.160156 193.714844 L 203.945312 193.714844 C 206.148438 193.714844 207.9375 195.503906 207.9375 197.707031 C 207.9375 199.910156 206.148438 201.699219 203.945312 201.699219 Z M 203.945312 201.699219 " fill-opacity="1" fill-rule="nonzero"/><g clip-path="url(#7db7f602dc)"><path fill="#d9d9d9" d="M 345.367188 99.332031 C 344.34375 99.332031 343.320312 98.941406 342.542969 98.160156 L 315.363281 70.980469 C 314.613281 70.230469 314.191406 69.21875 314.191406 68.15625 C 314.191406 67.097656 314.613281 66.082031 315.363281 65.335938 L 322.308594 58.390625 C 326.691406 54.007812 332.519531 51.589844 338.722656 51.589844 C 344.925781 51.589844 350.753906 54.007812 355.132812 58.390625 C 364.183594 67.4375 364.183594 82.164062 355.132812 91.214844 L 348.1875 98.160156 C 347.410156 98.9375 346.386719 99.332031 345.367188 99.332031 Z M 323.832031 68.15625 L 345.367188 89.691406 L 349.492188 85.570312 C 355.425781 79.636719 355.425781 69.972656 349.492188 64.039062 C 346.617188 61.164062 342.792969 59.578125 338.726562 59.578125 C 334.660156 59.578125 330.839844 61.15625 327.964844 64.039062 Z M 323.832031 68.15625 " fill-opacity="1" fill-rule="nonzero"/></g><g clip-path="url(#e9d8e31843)"><path fill="#d9d9d9" d="M 348.1875 92.511719 L 321.011719 65.335938 C 319.453125 63.777344 316.921875 63.777344 315.363281 65.335938 L 280.003906 100.6875 C 273.910156 84.347656 258.152344 72.671875 239.710938 72.671875 L 53.8125 72.671875 C 30.105469 72.671875 10.8125 91.964844 10.8125 115.675781 L 10.8125 201.238281 C 10.8125 223.613281 27.984375 242.046875 49.847656 244.058594 L 50.238281 304.582031 C 50.246094 306.210938 51.25 307.667969 52.761719 308.265625 C 53.238281 308.457031 53.734375 308.546875 54.230469 308.546875 C 55.304688 308.546875 56.351562 308.117188 57.125 307.304688 L 117.15625 244.238281 L 239.710938 244.238281 C 263.417969 244.238281 282.703125 224.949219 282.703125 201.238281 L 282.703125 163.644531 L 348.1875 98.160156 C 349.746094 96.601562 349.746094 94.070312 348.1875 92.511719 Z M 274.71875 201.238281 C 274.71875 220.546875 259.015625 236.253906 239.710938 236.253906 L 115.441406 236.253906 C 114.351562 236.253906 113.304688 236.703125 112.550781 237.496094 L 58.15625 294.636719 L 57.804688 240.21875 C 57.789062 238.027344 56.007812 236.253906 53.8125 236.253906 C 34.507812 236.253906 18.796875 220.546875 18.796875 201.238281 L 18.796875 115.675781 C 18.796875 96.367188 34.507812 80.65625 53.8125 80.65625 L 239.710938 80.65625 C 256.039062 80.65625 269.792969 91.898438 273.644531 107.054688 L 222.65625 158.042969 C 222.15625 158.542969 221.792969 159.167969 221.617188 159.851562 L 211.949219 196.695312 C 211.59375 198.066406 211.988281 199.527344 212.988281 200.53125 C 213.75 201.289062 214.765625 201.699219 215.816406 201.699219 C 216.152344 201.699219 216.492188 201.65625 216.828125 201.566406 L 253.671875 191.90625 C 254.351562 191.722656 254.980469 191.367188 255.480469 190.867188 L 274.71875 171.628906 Z M 282.703125 152.351562 L 250.597656 184.457031 L 221.410156 192.113281 L 229.066406 162.925781 L 318.183594 73.804688 L 339.71875 95.332031 Z M 282.703125 152.351562 " fill-opacity="1" fill-rule="nonzero"/></g><path fill="#d9d9d9" d="M 249.46875 189.429688 C 248.449219 189.429688 247.425781 189.042969 246.648438 188.257812 L 224.210938 165.820312 C 222.652344 164.261719 222.652344 161.734375 224.210938 160.171875 C 225.769531 158.613281 228.300781 158.613281 229.859375 160.171875 L 252.296875 182.609375 C 253.855469 184.171875 253.855469 186.699219 252.296875 188.257812 C 251.515625 189.035156 250.492188 189.429688 249.46875 189.429688 Z M 249.46875 189.429688 " fill-opacity="1" fill-rule="nonzero"/></svg>